<?xml version="1.0" standalone="no"?>
<!DOCTYPE svg PUBLIC "-//W3C//DTD SVG 20010904//EN"
 "http://www.w3.org/TR/2001/REC-SVG-20010904/DTD/svg10.dtd">
<svg version="1.0" xmlns="http://www.w3.org/2000/svg"
 width="3200.000000pt" height="2000.000000pt" viewBox="0 0 3200.000000 2000.000000"
 preserveAspectRatio="xMidYMid meet">

<g transform="translate(0.000000,2000.000000) scale(0.100000,-0.100000)"
fill="#000000" stroke="none">
<path d="M0 10000 l0 -10000 8601 0 8602 0 -7 122 c-4 68 -13 222 -21 343 -23
341 -26 400 -31 705 -4 264 -3 286 14 310 36 50 51 110 37 144 -6 13 -4 21 4
24 7 2 17 14 22 26 5 11 18 35 29 51 11 17 23 36 26 43 3 6 12 12 20 12 8 0
14 7 14 15 0 9 7 18 15 21 8 4 15 14 15 24 0 9 16 28 34 41 19 13 40 34 45 46
6 13 15 23 21 23 5 0 10 7 10 15 0 8 5 15 10 15 5 0 18 8 29 19 32 32 51 39
77 27 30 -14 41 -44 50 -130 6 -66 21 -135 23 -108 1 6 6 12 11 12 6 0 10 -21
10 -47 0 -27 4 -54 8 -61 10 -15 72 -5 79 14 2 7 11 10 18 8 8 -4 16 6 20 26
4 17 19 44 35 60 27 28 59 130 75 240 4 25 20 79 36 120 15 41 38 113 49 160
26 105 38 143 62 197 10 24 18 49 18 58 0 8 13 36 30 62 22 35 27 49 17 55 -9
6 -9 11 1 28 18 29 16 31 -30 28 l-43 -3 -3 73 c-2 45 2 79 8 88 7 7 16 44 20
81 5 37 13 69 19 71 6 2 11 16 11 30 0 26 58 154 73 160 4 2 16 22 27 45 10
23 33 56 50 74 17 18 30 43 30 57 0 15 8 30 20 36 11 6 20 18 20 26 0 8 5 12
11 9 6 -4 23 7 38 24 19 21 34 29 45 25 12 -4 16 0 16 15 0 20 5 21 108 21
l107 0 45 56 c74 93 152 227 168 289 10 39 25 150 37 288 4 37 11 82 16 100 5
18 14 73 20 122 18 168 40 269 65 296 15 17 26 20 64 15 25 -3 61 -10 80 -16
101 -29 149 -4 196 100 9 19 22 42 29 50 7 8 20 37 29 64 9 27 23 58 32 70 8
11 19 39 25 61 12 46 65 196 84 240 7 17 17 44 21 60 8 34 68 161 89 188 8 12
37 23 79 30 52 9 67 15 72 32 4 11 16 32 28 47 11 14 32 46 46 69 14 23 39 63
55 88 17 25 46 87 64 136 62 163 61 161 133 169 51 6 67 13 90 37 21 21 42 31
76 36 26 3 60 12 75 20 15 8 36 11 46 8 44 -14 52 153 14 275 -7 19 -13 61
-16 92 -3 46 0 61 14 74 27 25 76 8 133 -46 66 -61 92 -75 112 -59 8 7 13 15
12 19 -3 7 -104 96 -142 125 -15 11 -32 25 -39 30 -35 28 -80 45 -119 45 -83
0 -93 -8 -104 -79 -7 -44 -94 -279 -139 -378 -33 -72 -66 -120 -138 -201 -21
-23 -67 -87 -102 -141 -71 -109 -164 -216 -183 -210 -8 3 0 22 21 54 83 123
118 201 197 442 46 136 111 309 145 383 75 165 86 195 129 385 36 155 67 360
110 719 14 115 31 215 37 222 15 18 39 17 63 -1 17 -13 17 -19 6 -82 -17 -98
-15 -216 4 -245 14 -21 22 -53 55 -198 4 -19 18 -56 29 -82 12 -26 22 -49 22
-52 0 -2 16 -38 35 -79 19 -41 38 -90 42 -108 3 -19 15 -41 25 -50 10 -9 18
-26 18 -37 0 -11 4 -23 9 -26 4 -3 11 -18 14 -33 3 -16 33 -65 66 -109 l60
-81 88 -22 c48 -12 130 -42 181 -66 50 -24 92 -40 92 -35 0 5 -4 11 -10 15
-13 8 -1 36 27 64 43 41 117 62 238 66 100 4 132 8 245 34 57 13 144 53 159
73 7 10 22 18 32 18 11 0 19 4 19 9 0 5 27 26 60 47 33 22 60 42 60 47 0 4 12
7 26 7 29 0 104 71 104 98 0 18 45 72 59 72 4 0 17 17 29 38 12 20 33 50 47
66 14 16 25 41 25 57 0 28 5 34 101 121 16 14 29 22 29 17 0 -5 8 -2 18 7 56
50 90 74 112 79 14 3 34 16 44 30 11 14 24 21 33 18 12 -5 14 -1 8 15 -6 20
-3 22 29 22 29 0 36 4 36 20 0 16 7 20 30 20 17 0 30 5 30 10 0 6 9 10 20 10
13 0 20 7 20 20 0 13 7 20 20 20 13 0 20 7 20 18 0 11 9 29 20 42 11 13 20 27
20 32 0 4 7 8 15 8 24 0 105 43 105 56 0 7 9 16 20 19 11 3 20 11 20 16 0 5 6
9 13 9 7 0 27 13 45 30 18 17 40 30 48 30 8 0 14 9 14 20 0 11 6 20 14 20 7 0
19 14 26 30 7 17 16 30 20 30 4 0 13 13 20 29 7 17 22 32 36 35 14 4 30 18 36
31 6 14 19 25 29 25 10 0 21 10 24 21 6 17 9 19 16 8 7 -11 10 -9 15 8 3 12
15 25 25 28 10 4 19 13 19 21 0 8 9 14 20 14 13 0 20 7 20 20 0 12 7 20 16 20
9 0 25 10 35 22 11 11 19 17 19 12 0 -5 11 3 25 18 14 15 25 32 25 38 0 5 9
10 20 10 13 0 20 7 20 18 0 10 9 24 20 32 11 8 20 22 20 32 0 10 7 18 15 18 8
0 19 8 24 19 11 20 43 32 58 22 5 -3 17 -23 26 -43 11 -23 25 -38 36 -38 17 0
60 33 62 48 0 4 2 19 3 34 2 34 46 75 97 91 21 6 39 15 39 19 0 5 7 8 15 8 8
0 18 12 21 27 4 16 15 35 26 44 10 9 18 24 18 33 0 9 7 16 15 16 8 0 15 4 15
8 0 4 16 14 35 21 19 7 35 18 35 26 0 7 13 19 30 27 17 7 30 19 30 25 0 7 9
13 20 13 13 0 20 7 20 20 0 11 7 20 15 20 8 0 15 7 15 16 0 15 23 44 35 44 12
0 35 29 35 44 0 9 8 16 20 16 13 0 20 -7 20 -20 0 -13 7 -20 20 -20 11 0 20
-4 20 -10 0 -5 9 -10 20 -10 16 0 20 -7 20 -30 0 -28 2 -30 40 -30 38 0 40 -2
40 -30 0 -30 1 -30 54 -30 l54 0 7 -40 7 -40 157 0 158 0 19 -41 c16 -36 18
-64 16 -200 -2 -103 1 -159 8 -159 5 0 10 -9 10 -20 0 -11 7 -20 15 -20 8 0
15 -4 15 -10 0 -5 7 -10 15 -10 8 0 15 -4 15 -8 0 -14 41 -57 51 -55 9 3 14
-24 11 -59 -1 -10 5 -18 13 -18 20 0 19 -19 -1 -27 -8 -3 -13 -12 -10 -20 4
-9 2 -11 -6 -7 -7 5 -9 2 -5 -9 4 -11 2 -14 -9 -10 -9 3 -14 -1 -14 -11 0 -13
4 -14 18 -7 24 13 212 206 212 218 0 5 -36 54 -80 109 -98 120 -158 237 -171
331 -5 37 -11 142 -12 233 -2 140 1 170 16 199 9 19 17 40 17 47 0 19 59 64
75 58 8 -3 24 -21 35 -39 27 -44 50 -37 50 14 0 21 7 46 15 57 21 28 18 59 -7
71 -56 27 -89 34 -118 28 -31 -7 -90 10 -90 25 0 32 208 14 333 -28 165 -56
305 -177 375 -324 39 -81 112 -287 112 -315 0 -8 28 -96 61 -195 78 -229 88
-274 89 -376 0 -111 -44 -299 -135 -582 -21 -63 -53 -164 -71 -223 -19 -60
-37 -113 -40 -119 -9 -15 -135 -411 -185 -583 -79 -273 -118 -392 -295 -910
-20 -60 -41 -111 -46 -113 -4 -2 -8 -17 -8 -34 0 -33 -69 -300 -155 -598 -29
-102 -65 -230 -80 -285 -26 -99 -55 -199 -173 -610 -34 -115 -84 -295 -112
-400 -28 -104 -62 -228 -75 -275 -95 -340 -212 -762 -235 -850 -38 -139 -154
-559 -190 -685 -15 -55 -56 -203 -90 -330 -33 -126 -72 -268 -85 -315 -27 -94
-189 -699 -266 -990 -41 -155 -80 -309 -104 -418 l-5 -22 4120 0 4120 0 0
10000 0 10000 -16000 0 -16000 0 0 -10000z m9147 8130 c181 -10 200 -18 232
-94 21 -51 132 -368 176 -501 12 -38 46 -133 75 -210 28 -77 73 -205 100 -285
27 -80 67 -197 90 -260 23 -63 52 -149 66 -190 14 -41 29 -84 34 -95 4 -11 32
-90 61 -175 28 -85 76 -225 106 -310 130 -373 163 -480 163 -524 0 -15 -11
-31 -27 -42 -24 -16 -52 -19 -178 -22 -82 -2 -190 1 -239 5 -89 8 -90 8 -110
43 -12 19 -61 157 -111 305 l-90 270 -505 -3 c-277 -1 -507 -5 -510 -10 -4 -4
-24 -61 -44 -127 -83 -265 -139 -427 -153 -440 -29 -29 -114 -45 -242 -45
-120 0 -236 12 -250 26 -3 3 -5 33 -4 67 1 61 43 196 148 482 36 96 83 231
295 845 167 483 181 524 190 545 5 11 34 97 66 190 79 239 161 471 174 495 32
59 184 78 487 60z m8435 -281 c35 -11 77 -33 94 -48 31 -28 84 -93 84 -103 0
-4 -22 -8 -50 -10 -38 -2 -50 1 -54 12 -2 8 -4 -6 -5 -32 -2 -77 -21 -136 -47
-142 -16 -4 -24 -16 -29 -43 -11 -60 -31 -90 -65 -96 -31 -7 -42 -27 -15 -27
8 0 15 -7 15 -15 0 -8 -6 -15 -12 -15 -24 0 -98 -74 -98 -97 0 -12 -9 -27 -20
-33 -16 -8 -20 -21 -20 -60 0 -29 -5 -50 -11 -50 -20 0 -39 -28 -39 -57 0 -19
-12 -41 -35 -66 -19 -20 -35 -45 -35 -55 0 -12 -13 -23 -37 -31 -46 -17 -70
-42 -84 -90 -8 -29 -6 -48 10 -100 22 -67 30 -251 12 -251 -5 0 -12 -18 -16
-40 -4 -25 -12 -40 -21 -40 -8 0 -14 -6 -14 -14 0 -7 -7 -27 -15 -42 -12 -24
-15 -26 -16 -9 0 12 -6 5 -15 -20 -8 -21 -19 -42 -25 -46 -6 -3 -12 -23 -14
-43 -7 -77 -15 -94 -44 -101 -22 -5 -31 -15 -41 -46 -9 -26 -16 -35 -21 -27
-4 7 -10 10 -11 8 -23 -30 -38 -64 -38 -85 0 -14 -4 -25 -10 -25 -5 0 -7 -7
-4 -15 4 -8 1 -15 -6 -15 -9 0 -10 -10 -6 -34 5 -27 3 -37 -11 -45 -12 -7 -14
-13 -7 -18 18 -12 72 -125 79 -166 4 -20 11 -37 15 -37 5 0 11 -9 15 -19 3
-11 15 -23 26 -26 10 -4 19 -12 19 -20 0 -7 17 -15 43 -18 23 -4 63 -9 89 -13
45 -6 50 -4 83 29 l36 36 12 -27 c16 -37 11 -239 -9 -355 -28 -165 -35 -241
-29 -284 6 -39 4 -43 -14 -43 -23 0 -26 -7 -11 -30 6 -10 10 -11 10 -2 0 6 5
12 10 12 6 0 10 -9 10 -19 0 -34 41 -71 85 -78 22 -3 47 -12 56 -20 9 -7 25
-15 36 -17 45 -9 173 -77 240 -128 l72 -54 110 -13 c61 -7 115 -10 119 -7 5 3
11 -36 14 -88 4 -79 10 -102 37 -156 18 -34 43 -77 57 -95 13 -17 24 -35 24
-40 0 -4 15 -25 33 -46 90 -106 105 -136 87 -179 -12 -30 -13 -30 -86 -30 -40
0 -76 -4 -79 -10 -3 -5 -22 -10 -41 -10 -24 0 -34 -5 -34 -15 0 -10 -10 -15
-30 -15 -18 0 -30 5 -30 13 0 14 -40 37 -65 37 -8 0 -15 4 -15 9 0 5 -13 14
-30 21 -28 12 -42 40 -20 40 6 0 10 9 10 20 0 16 -7 20 -30 20 -20 0 -30 5
-30 15 0 9 -9 15 -25 15 -28 0 -75 20 -75 32 0 4 -24 8 -52 8 -56 0 -142 20
-120 27 6 3 12 15 12 28 0 16 -7 24 -25 27 -27 6 -34 0 -60 -52 -15 -28 -20
-70 -24 -205 l-6 -169 -39 -10 c-27 -6 -50 -5 -71 3 -17 6 -41 11 -53 11 -13
0 -22 6 -22 15 0 8 -9 15 -20 15 -13 0 -20 7 -20 20 0 11 -4 20 -10 20 -5 0
-10 9 -10 20 0 11 -4 20 -10 20 -5 0 -10 6 -10 14 0 8 -9 18 -20 21 -12 4 -38
24 -60 46 -21 21 -43 39 -49 39 -6 0 -11 5 -11 10 0 6 -19 10 -41 10 l-41 0 7
-37 c4 -21 10 -40 14 -43 3 -3 8 -28 9 -55 3 -50 -17 -117 -38 -130 -5 -3 -10
-13 -10 -20 0 -19 -79 -93 -107 -101 -26 -7 -81 30 -94 64 -10 26 -22 28 -43
7 -8 -8 -22 -15 -31 -15 -9 0 -24 -13 -33 -30 -12 -21 -27 -31 -54 -35 -41 -7
-51 -29 -19 -40 11 -3 22 -13 26 -23 28 -72 43 -292 21 -292 -19 0 -36 -76
-36 -157 0 -57 -3 -71 -20 -83 -12 -8 -20 -26 -20 -42 0 -15 -4 -28 -9 -28 -9
0 -12 -13 -35 -160 -15 -101 -23 -130 -36 -130 -5 0 -10 -19 -12 -42 -2 -28
-7 -42 -15 -41 -8 2 -13 -8 -13 -26 0 -27 -21 -57 -32 -46 -9 9 -39 -101 -32
-118 3 -10 1 -23 -5 -31 -15 -18 -3 -46 20 -46 12 0 19 -7 19 -20 0 -13 7 -20
20 -20 13 0 20 -7 20 -20 0 -13 -7 -20 -20 -20 -11 0 -20 -4 -20 -10 0 -5 11
-10 25 -10 14 0 25 5 25 10 0 6 7 10 15 10 11 0 15 11 15 35 0 44 55 105 95
105 14 0 25 5 25 10 0 6 -4 10 -10 10 -5 0 -10 18 -10 40 0 33 3 40 20 40 18
0 20 7 20 80 0 47 4 80 10 80 6 0 10 16 10 35 0 19 5 46 12 60 l12 26 13 -23
c15 -28 18 -239 3 -254 -5 -5 -10 -63 -11 -127 -1 -64 -5 -117 -10 -117 -5 0
-10 -116 -11 -257 -2 -145 -7 -257 -12 -255 -18 7 -26 -25 -26 -110 0 -48 -4
-90 -10 -93 -5 -3 -10 -24 -10 -46 0 -24 -4 -38 -10 -34 -6 3 -14 -5 -19 -18
-6 -16 -20 -26 -41 -30 -17 -4 -37 -12 -44 -19 -38 -36 -59 -48 -84 -48 -54
-1 -96 -58 -108 -149 -6 -45 -4 -54 15 -70 26 -23 27 -31 1 -31 -16 0 -20 -7
-20 -35 0 -24 -5 -35 -15 -35 -8 0 -15 -4 -15 -10 0 -5 -9 -10 -20 -10 -11 0
-26 -12 -34 -29 -16 -30 -59 -51 -107 -51 -16 0 -37 -7 -46 -15 -47 -41 -81
-63 -108 -69 -66 -15 -83 -26 -81 -54 1 -27 40 -71 64 -72 6 0 12 -3 12 -8 0
-20 119 -47 195 -45 22 1 75 7 117 14 91 13 128 7 128 -21 0 -11 4 -20 10 -20
11 0 30 -66 29 -100 -1 -20 -3 -18 -9 10 -7 33 -7 32 -9 -17 -1 -39 -7 -58
-23 -76 -13 -14 -30 -34 -38 -46 -12 -18 -27 -22 -89 -26 -56 -3 -77 0 -89 11
-8 8 -22 12 -30 9 -8 -3 -19 -1 -22 6 -5 7 -10 8 -14 1 -10 -16 181 -150 370
-261 67 -39 126 -77 133 -84 12 -16 5 -27 -18 -27 -8 0 -90 -24 -181 -54 -285
-94 -452 -135 -546 -136 -139 0 -307 66 -463 184 -136 103 -403 372 -464 466
-34 53 -77 353 -77 539 0 63 -5 140 -11 170 -11 56 -11 57 35 153 48 99 124
196 175 223 38 19 93 27 111 16 17 -11 9 -19 -62 -66 -21 -14 -59 -48 -85 -77
-27 -28 -64 -67 -84 -87 -20 -20 -39 -46 -43 -58 -7 -21 -4 -22 81 -27 48 -3
102 -6 118 -6 20 0 26 -3 17 -9 -10 -6 -4 -13 21 -25 42 -19 62 -21 27 -1 -14
7 -23 16 -20 19 9 10 -38 36 -53 30 -22 -8 -5 68 31 138 17 32 35 70 41 85 15
35 28 56 70 113 18 25 45 67 59 94 15 26 39 69 54 95 15 25 30 53 33 61 4 8
13 30 21 48 8 18 14 48 14 67 0 19 4 65 10 102 5 38 15 113 21 168 16 141 62
383 108 580 11 44 29 130 41 190 11 61 30 148 41 195 11 47 24 103 30 125 5
22 14 90 19 150 6 61 20 144 32 185 11 41 22 98 23 125 1 28 9 75 18 105 15
48 16 73 6 200 -5 80 -16 165 -24 190 -8 25 -17 63 -21 85 -4 22 -24 72 -45
111 -22 39 -39 79 -39 87 0 9 -5 28 -12 44 -6 15 -11 31 -10 35 1 4 -8 31 -20
60 -15 37 -22 78 -24 138 -3 130 -3 132 -14 125 -5 -3 -10 0 -10 9 0 8 6 16
12 18 31 11 -39 49 -102 57 -13 1 -11 324 2 461 6 52 10 150 9 218 -1 95 2
121 12 116 9 -6 9 -5 0 7 -6 8 -13 61 -16 119 -2 58 -12 166 -21 240 -18 144
-15 229 11 269 11 17 13 34 8 60 -19 99 -22 144 -14 231 11 114 34 191 71 232
27 30 29 31 89 24 35 -3 70 -12 78 -20 9 -8 28 -17 43 -21 14 -4 36 -17 49
-31 18 -19 20 -26 9 -39 -8 -10 -17 -12 -28 -6 -21 12 -62 -7 -62 -29 0 -9 -5
-21 -11 -27 -7 -7 -10 -36 -7 -77 3 -52 8 -69 26 -85 16 -13 19 -21 10 -24
-10 -4 -11 -7 0 -14 21 -15 31 -69 21 -108 -6 -19 -14 -35 -19 -35 -6 0 -10
-6 -10 -14 0 -8 -7 -16 -15 -20 -11 -4 -15 -23 -15 -81 0 -64 -3 -77 -20 -87
-16 -10 -20 -24 -20 -64 0 -42 -24 -279 -33 -328 -1 -6 6 -10 16 -8 19 3 105
-52 114 -74 3 -8 8 -12 12 -10 20 13 71 -64 71 -109 0 -14 5 -25 10 -25 6 0
10 -12 10 -27 0 -16 11 -46 23 -68 18 -32 23 -58 25 -130 2 -78 -1 -101 -27
-172 -29 -83 -29 -83 -8 -84 17 -1 15 -3 -8 -9 l-30 -8 37 -1 c20 0 38 -5 40
-11 4 -12 50 -15 119 -6 l56 8 33 -59 c18 -32 41 -69 52 -83 11 -14 48 -72 83
-130 88 -143 90 -145 147 -170 37 -16 60 -20 90 -15 45 8 52 19 63 110 4 33
15 85 25 115 11 35 20 102 23 185 4 72 11 155 17 185 6 30 13 66 15 80 2 14
10 79 19 145 24 176 52 279 103 380 25 50 54 111 64 138 10 26 53 118 95 205
121 250 139 289 202 442 54 130 115 305 197 565 16 50 42 122 57 160 16 39 33
79 37 90 5 11 17 43 28 70 106 263 134 307 208 333 46 16 79 14 147 -9z m1200
-215 c42 -22 114 -90 149 -141 34 -48 36 -57 11 -44 -14 7 -21 5 -29 -8 -9
-14 -30 -20 -88 -24 -42 -4 -84 -11 -93 -17 -10 -5 -12 -10 -4 -10 6 0 12 -4
12 -10 0 -5 -19 -10 -43 -10 -31 0 -46 -5 -57 -20 -9 -12 -26 -20 -43 -20 -42
0 -87 -30 -87 -57 0 -13 -4 -23 -9 -23 -17 0 -65 -120 -76 -193 -3 -21 -10
-35 -15 -32 -4 3 -13 -9 -19 -25 -6 -18 -6 -28 -1 -25 18 11 10 -8 -17 -44
-15 -19 -29 -45 -31 -56 -1 -11 -19 -44 -40 -74 -62 -90 -71 -105 -71 -123 -1
-10 -5 -18 -11 -18 -5 0 -10 -7 -10 -15 0 -8 -9 -24 -20 -35 -11 -11 -20 -29
-20 -40 0 -11 -7 -23 -15 -26 -8 -4 -15 -16 -15 -28 -1 -11 -7 -32 -15 -46
-20 -35 -18 -50 5 -50 12 0 20 -7 20 -16 0 -18 23 -44 39 -44 6 0 11 -9 11
-20 0 -18 7 -20 55 -20 48 0 55 -2 55 -20 0 -16 -7 -20 -35 -20 -24 0 -35 -5
-35 -15 0 -11 -11 -15 -40 -15 -36 0 -40 3 -40 25 0 23 -4 25 -40 25 l-40 0 0
-49 0 -49 -41 5 c-35 5 -41 3 -46 -16 -5 -19 -31 -28 -65 -22 -5 0 -8 -6 -8
-15 0 -8 -4 -13 -9 -10 -8 5 -16 -5 -20 -29 -2 -5 -9 -17 -17 -26 -8 -9 -12
-18 -9 -21 3 -2 -6 -10 -20 -16 -28 -13 -30 -10 -14 21 13 24 163 255 179 274
6 7 10 15 10 19 0 12 76 136 97 159 34 39 95 156 163 315 18 41 54 119 81 173
31 62 49 112 49 134 0 114 96 344 184 441 51 57 130 76 188 46z m-7107 -185
c72 -34 77 -51 73 -263 -3 -192 -13 -237 -52 -244 -10 -2 -53 6 -94 18 -87 26
-186 24 -241 -4 -47 -25 -189 -169 -234 -238 l-38 -57 1 -589 0 -588 -23 -22
c-35 -33 -122 -45 -272 -38 -143 6 -190 16 -211 43 -11 15 -13 185 -14 973 l0
955 23 15 c16 11 61 16 165 18 245 6 252 2 252 -158 0 -127 10 -138 59 -66 47
68 195 201 257 230 106 50 260 57 349 15z m1450 7 c120 -25 146 -34 224 -72
221 -109 350 -282 412 -554 25 -106 37 -356 20 -417 -15 -56 -54 -101 -94
-108 -18 -3 -291 -7 -607 -9 l-575 -5 2 -78 c3 -89 32 -185 75 -249 78 -118
245 -184 461 -184 134 0 233 18 457 83 107 31 161 39 180 27 22 -14 22 -308 0
-335 -42 -50 -136 -86 -352 -134 -110 -25 -227 -35 -383 -34 -381 2 -619 105
-802 348 -53 72 -99 174 -128 290 -47 191 -47 568 2 764 35 143 118 301 210
400 143 155 276 230 468 266 98 18 343 18 430 1z m7955 -1056 c0 -11 4 -20 8
-20 4 0 14 9 22 20 11 15 26 20 57 20 36 0 43 -3 43 -20 0 -19 7 -20 115 -20
70 0 115 -4 115 -10 0 -5 22 -10 49 -10 28 0 53 5 56 10 3 6 52 10 111 10 107
0 109 -1 105 -42 -2 -15 7 -18 58 -18 54 0 61 2 61 20 0 17 7 20 45 20 25 0
45 -4 45 -10 0 -5 7 -10 15 -10 8 0 15 -4 15 -10 0 -5 6 -10 14 -10 8 0 16 -4
18 -10 2 -5 31 -13 66 -16 42 -5 62 -11 62 -20 0 -11 18 -14 74 -14 66 0 75
-2 81 -20 4 -13 15 -20 31 -20 13 0 24 -5 24 -11 0 -5 -4 -7 -10 -4 -5 3 -10
2 -10 -3 0 -12 24 -22 54 -22 12 0 28 -9 36 -20 8 -11 22 -20 32 -20 11 0 18
-7 18 -20 0 -13 7 -20 20 -20 13 0 20 -7 20 -20 0 -11 5 -20 11 -20 20 0 50
-42 43 -62 -3 -10 -1 -18 5 -18 6 0 11 -9 11 -20 0 -11 7 -20 15 -20 8 0 19
-16 25 -40 6 -22 15 -40 20 -40 6 0 10 -7 10 -16 0 -8 7 -22 15 -30 8 -9 15
-24 15 -35 0 -12 7 -19 20 -19 13 0 20 -7 20 -19 0 -10 13 -33 29 -50 25 -27
31 -44 37 -101 5 -49 11 -70 20 -70 8 0 14 -11 14 -26 0 -16 12 -37 30 -54 18
-17 30 -38 30 -54 0 -14 4 -26 9 -26 13 0 25 -552 11 -560 -8 -5 -9 -33 -4
-93 l7 -87 38 0 c22 0 39 -4 39 -10 0 -5 9 -10 20 -10 11 0 20 -4 20 -10 0 -5
-9 -10 -20 -10 -13 0 -20 -7 -20 -20 0 -11 -7 -20 -15 -20 -8 0 -15 -4 -15
-10 0 -5 6 -10 14 -10 8 0 16 -6 18 -12 3 -9 10 -7 24 6 13 14 15 21 6 24 -19
6 -14 22 8 22 11 0 20 5 20 10 0 15 39 12 56 -4 9 -10 14 -36 14 -78 0 -52 4
-66 20 -78 17 -12 20 -26 20 -92 0 -45 -4 -78 -10 -78 -5 0 -10 -9 -10 -20 0
-11 5 -20 10 -20 6 0 9 -23 9 -52 -2 -49 -2 -51 -9 -18 -6 31 -8 32 -9 8 -1
-17 -8 -29 -20 -33 -12 -3 -19 -16 -20 -33 -5 -123 7 -172 45 -172 13 0 24 5
24 10 0 6 9 10 20 10 11 0 20 5 20 10 0 6 27 10 60 10 l60 0 0 30 c0 17 5 30
10 30 6 0 10 9 10 20 0 17 7 20 40 20 33 0 40 3 40 20 0 17 7 20 40 20 33 0
40 -3 40 -20 0 -11 5 -20 10 -20 6 0 10 -22 10 -50 0 -38 5 -54 23 -72 28 -28
38 -59 26 -80 -6 -10 -2 -23 10 -37 11 -12 22 -40 26 -62 4 -21 11 -39 16 -39
5 0 9 -9 9 -20 0 -11 4 -20 9 -20 5 0 14 -13 20 -30 5 -16 17 -30 25 -30 10 0
16 -9 16 -22 0 -13 11 -35 24 -51 18 -20 25 -44 30 -97 6 -53 12 -73 27 -83
12 -9 17 -20 13 -31 -3 -9 -1 -16 5 -16 6 0 11 -7 11 -15 0 -9 11 -20 24 -26
14 -7 28 -26 35 -48 15 -46 30 -162 24 -178 -3 -7 2 -13 11 -13 12 0 16 -9 16
-34 0 -19 5 -38 10 -41 6 -3 10 -15 10 -26 0 -10 5 -19 10 -19 6 0 10 -12 10
-26 0 -14 7 -32 15 -40 8 -9 15 -25 16 -37 3 -93 8 -198 14 -289 l7 -108 -36
0 c-35 0 -36 1 -36 40 l0 40 -40 0 c-38 0 -40 -2 -40 -30 0 -23 -4 -30 -20
-30 -11 0 -20 -4 -20 -10 0 -14 -37 -12 -44 3 -5 10 -7 10 -12 0 -12 -26 -24
-12 -25 30 0 23 -3 36 -6 30 -2 -7 -11 -13 -19 -13 -8 0 -14 -4 -14 -10 0 -5
5 -10 10 -10 6 0 10 -9 10 -20 0 -11 5 -20 10 -20 6 0 10 -9 10 -20 0 -15 -7
-20 -25 -20 -27 0 -28 -1 -19 -24 4 -10 18 -16 40 -16 27 0 34 -4 34 -19 0
-11 4 -21 10 -23 5 -2 7 -27 3 -60 -5 -48 -9 -58 -24 -58 -17 0 -19 -9 -19
-110 0 -91 3 -110 15 -110 8 0 15 -9 15 -20 0 -11 5 -20 10 -20 6 0 10 -13 10
-30 0 -20 5 -30 15 -30 11 0 15 -11 15 -40 0 -33 -3 -40 -20 -40 -11 0 -20 -4
-20 -10 0 -5 9 -10 20 -10 11 0 20 -4 20 -10 0 -5 -9 -10 -20 -10 -13 0 -20
-7 -20 -20 0 -13 7 -20 20 -20 13 0 20 -7 20 -20 0 -13 7 -20 20 -20 13 0 20
7 20 20 0 13 7 20 20 20 18 0 20 7 20 80 l0 80 30 0 c26 0 30 4 30 28 0 16 9
39 20 52 21 24 28 80 10 80 -16 0 -13 149 4 166 10 9 37 14 80 14 59 0 66 -2
66 -20 0 -11 3 -20 8 -20 8 0 31 -60 39 -105 3 -16 10 -32 14 -35 27 -18 27
-349 0 -358 -6 -2 -11 -17 -11 -34 0 -29 -19 -58 -39 -58 -6 0 -11 -7 -11 -15
0 -13 -23 -15 -150 -15 -143 0 -150 -1 -150 -20 0 -11 -4 -20 -10 -20 -5 0
-10 9 -10 20 0 11 -4 20 -10 20 -5 0 -10 -9 -10 -20 0 -11 -4 -20 -10 -20 -5
0 -10 -9 -10 -20 0 -11 5 -20 10 -20 15 0 12 -19 -6 -37 -13 -14 -17 -14 -26
-2 -7 11 -11 11 -15 2 -2 -7 -11 -13 -19 -13 -8 0 -14 -7 -14 -15 0 -8 7 -15
15 -15 10 0 15 -10 15 -29 0 -23 5 -31 23 -34 14 -3 8 -5 -15 -6 -31 -1 -39
-5 -44 -26 -3 -14 -4 -40 0 -58 6 -35 -6 -63 -23 -53 -6 4 -15 -3 -20 -16 -7
-17 -10 -19 -10 -5 -1 30 -17 18 -29 -22 -7 -21 -12 -46 -12 -55 0 -9 -4 -16
-9 -16 -5 0 -11 -8 -15 -17 -3 -10 -9 -24 -12 -30 -3 -8 1 -13 10 -13 10 0 16
9 16 21 0 18 2 20 16 8 15 -13 46 -7 109 21 11 5 40 16 65 24 46 14 157 61
290 121 41 19 102 42 135 53 33 11 85 27 115 37 68 21 159 35 166 24 6 -10
-23 -26 -79 -44 -197 -64 -731 -292 -1023 -438 -109 -54 -202 -95 -275 -120
-14 -4 -58 -83 -73 -129 -3 -9 -23 -26 -46 -38 -22 -11 -40 -24 -40 -29 0 -5
-12 -12 -26 -15 -14 -4 -43 -24 -64 -46 -48 -49 -79 -56 -255 -53 -139 3 -140
3 -166 31 -14 15 -31 38 -38 50 -6 12 -18 22 -25 22 -13 0 -30 56 -31 102 0 9
-3 20 -7 24 -5 4 -8 22 -8 41 0 18 -4 33 -10 33 -12 0 -13 37 -2 42 5 2 12 29
16 61 5 47 4 57 -9 57 -12 0 -15 13 -15 58 0 46 -4 60 -20 72 -12 8 -20 26
-20 42 0 15 -4 28 -10 28 -5 0 -10 7 -10 15 0 8 -5 15 -11 15 -5 0 -8 4 -5 9
3 5 -6 17 -19 27 -14 10 -25 24 -25 30 0 6 -13 17 -30 24 -16 7 -30 19 -30 26
0 8 -9 14 -20 14 -11 0 -20 5 -20 10 0 6 -9 10 -19 10 -11 0 -47 26 -79 58
-33 31 -69 64 -81 72 -11 8 -21 20 -21 26 0 6 -13 17 -30 24 -16 7 -30 19 -30
27 0 8 -11 28 -25 45 -14 16 -25 37 -25 45 0 21 -29 53 -47 53 -7 0 -18 11
-24 24 -6 13 -27 32 -45 42 -25 13 -34 26 -34 44 -1 17 -19 43 -55 80 -30 30
-55 61 -55 68 0 6 -11 22 -24 33 -13 12 -27 32 -30 44 -3 13 -16 27 -28 31
-18 6 -104 78 -198 168 -43 40 -168 91 -199 81 -31 -9 -26 -28 13 -49 30 -16
56 -51 56 -76 0 -5 -19 -15 -42 -21 -24 -7 -50 -18 -59 -26 -8 -7 -21 -13 -29
-13 -7 0 -23 -12 -37 -26 -19 -21 -22 -32 -17 -60 5 -27 3 -34 -10 -34 -10 0
-19 -11 -22 -29 -4 -16 -15 -39 -26 -50 -10 -12 -16 -26 -13 -31 4 -6 -1 -13
-9 -16 -9 -3 -16 -14 -16 -23 0 -21 -39 -46 -67 -42 -27 3 -29 -2 -7 -23 14
-14 4 -15 -108 -11 -68 3 -150 7 -183 10 -70 4 -173 40 -195 67 -24 28 -218
20 -407 -18 -13 -2 -23 -11 -23 -19 0 -8 -8 -15 -17 -16 -10 0 -29 -2 -41 -3
-13 -2 -26 3 -29 11 -3 7 -18 13 -33 13 -15 0 -38 9 -52 19 -13 11 -36 23 -50
26 -15 4 -36 17 -48 30 -21 22 -22 32 -18 107 3 62 11 97 31 138 14 30 31 75
37 100 7 25 15 47 20 50 11 8 110 212 110 228 0 8 6 28 14 45 8 18 20 65 26
104 7 40 16 75 21 79 5 3 9 17 9 32 0 28 52 166 72 189 22 27 58 107 58 130 0
13 9 32 20 43 11 11 20 26 20 34 0 26 52 126 65 126 20 0 28 54 23 162 -2 77
-7 98 -25 121 -19 25 -21 40 -22 174 -2 132 -4 148 -21 163 -11 10 -20 23 -20
30 0 7 -9 21 -21 31 -11 9 -20 20 -20 23 3 20 -1 25 -21 28 -13 2 -41 -4 -63
-13 -29 -11 -54 -14 -90 -10 -44 6 -56 13 -104 64 -30 32 -63 71 -72 86 -10
16 -22 32 -28 35 -6 4 -11 15 -11 25 0 18 -96 233 -126 281 -8 14 -27 50 -41
80 -15 30 -46 78 -70 106 -23 28 -43 55 -43 59 0 5 -12 24 -27 43 -28 37 -36
103 -14 110 6 2 11 10 11 19 0 19 21 40 46 45 10 2 18 9 17 15 -1 6 7 19 17
28 13 12 20 31 20 54 0 25 6 41 20 51 11 8 20 22 20 32 0 11 7 18 20 18 13 0
20 7 20 18 0 10 9 24 20 32 15 11 20 26 20 62 l0 48 40 0 c39 0 40 1 40 36 0
38 18 64 44 64 9 0 16 8 16 20 0 13 7 20 20 20 13 0 20 7 20 20 0 23 34 28 44
8 5 -10 7 -10 12 0 3 6 14 12 25 12 16 0 19 7 19 50 0 28 -4 50 -10 50 -5 0
-10 -9 -10 -20 0 -11 -4 -20 -10 -20 -5 0 -10 18 -10 40 0 33 3 40 20 40 11 0
20 5 20 10 0 6 7 10 16 10 23 0 44 25 44 54 0 21 5 26 26 26 16 0 37 12 54 30
15 17 35 30 44 30 12 0 16 10 16 40 0 33 3 40 20 40 17 0 20 7 20 40 0 38 2
40 30 40 23 0 30 4 30 20 0 17 7 20 40 20 33 0 40 -3 40 -20 0 -13 7 -20 20
-20 17 0 20 7 20 40 0 33 4 40 19 40 10 0 21 9 24 20 4 15 14 20 41 20 29 0
36 4 36 20 0 13 -7 20 -20 20 -11 0 -20 -6 -20 -14 0 -16 -30 -26 -82 -26 -31
0 -38 4 -38 20 0 11 5 20 10 20 6 0 10 9 10 20 0 11 -6 20 -12 20 -9 0 -8 4 2
10 8 5 54 10 103 10 80 0 87 -2 87 -20 0 -11 5 -20 10 -20 6 0 10 9 10 20 0
17 7 20 40 20 22 0 40 5 40 10 0 6 -9 10 -19 10 -11 0 -22 6 -25 13 -5 10 -7
10 -12 0 -9 -20 -24 -15 -24 7 0 17 7 20 50 20 39 0 50 4 50 16 0 15 23 44 34
44 3 0 6 -9 6 -20 0 -17 7 -20 50 -20 28 0 50 5 50 10 0 6 -4 10 -10 10 -5 0
-10 5 -10 10 0 6 21 10 46 10 38 0 51 5 74 30 17 18 38 30 54 30 22 0 26 4 26
30 0 27 3 30 33 30 38 0 125 29 90 30 -18 0 -23 6 -23 25 0 25 1 25 80 25 73
0 80 2 80 20 0 11 5 20 10 20 6 0 10 -9 10 -20z m-720 -300 c0 -13 -7 -20 -20
-20 -23 0 -25 5 -7 25 17 20 27 18 27 -5z m-2550 -99 c0 -15 -38 -56 -45 -49
-4 4 0 14 9 23 9 9 16 21 16 26 0 5 5 9 10 9 6 0 10 -4 10 -9z m909 -988 c41
-16 43 -18 21 -23 -14 -3 -26 -14 -28 -24 -5 -26 7 -68 18 -61 5 3 12 -10 16
-30 6 -34 59 -102 75 -98 4 1 13 -4 19 -12 7 -8 18 -15 26 -15 7 0 14 -10 16
-22 2 -13 9 -22 16 -20 6 1 12 -8 12 -19 0 -23 46 -69 68 -69 6 0 12 -6 12
-13 0 -7 12 -20 28 -29 15 -10 21 -18 14 -18 -7 0 -10 -5 -7 -10 4 -6 10 -8
15 -5 10 6 16 -12 25 -77 3 -27 10 -48 16 -48 5 0 9 -9 9 -20 0 -11 5 -20 10
-20 6 0 10 -7 10 -15 0 -9 8 -19 18 -22 9 -4 29 -20 45 -36 15 -17 27 -23 27
-16 0 8 5 6 12 -6 6 -11 15 -22 19 -25 5 -3 13 -39 19 -79 12 -84 25 -100 85
-101 22 -1 62 -9 90 -19 44 -16 51 -22 56 -52 3 -19 11 -44 17 -56 7 -12 12
-30 12 -40 1 -36 57 -157 76 -163 10 -4 39 -1 64 6 26 8 91 14 153 14 104 0
109 -1 132 -26 29 -31 30 -37 11 -72 -8 -15 -22 -47 -32 -72 -11 -25 -31 -56
-46 -68 -16 -13 -28 -30 -28 -38 0 -8 -6 -14 -13 -14 -7 0 -23 -11 -35 -25
-12 -14 -35 -28 -51 -31 -24 -5 -32 -14 -42 -48 -11 -37 -15 -41 -46 -42 -19
0 -38 -5 -41 -10 -4 -5 -19 -10 -34 -11 -31 -2 -77 -32 -78 -50 0 -7 -13 -19
-28 -27 -16 -8 -39 -31 -53 -50 -13 -20 -32 -39 -41 -42 -10 -3 -18 -10 -18
-15 0 -5 -6 -9 -14 -9 -8 0 -18 -9 -21 -20 -3 -11 -11 -20 -16 -20 -12 0 -69
-117 -70 -145 -1 -11 -7 3 -14 30 l-13 50 -1 -47 c-1 -36 -5 -48 -16 -48 -8 0
-15 5 -15 10 0 6 -9 10 -20 10 -15 0 -20 7 -20 24 0 14 -4 28 -10 31 -5 3 -10
19 -10 34 0 16 -7 34 -16 41 -11 10 -14 23 -9 52 13 75 54 140 142 226 46 45
83 88 80 95 -2 7 -14 14 -28 16 -13 1 -36 12 -50 22 -15 10 -32 19 -37 19 -5
0 -32 20 -60 45 -35 31 -52 55 -56 79 -4 19 -11 36 -17 38 -6 2 -10 34 -10 76
0 39 -4 72 -9 72 -6 0 -10 7 -10 15 0 8 -9 15 -20 15 -13 0 -20 7 -20 20 0 13
-9 22 -27 26 -36 9 -52 31 -53 72 0 29 -3 33 -22 30 -22 -3 -23 -1 -20 63 3
55 1 67 -13 73 -12 4 -15 13 -11 34 5 20 2 31 -14 42 -11 8 -20 24 -20 35 0
12 -9 31 -20 43 -14 14 -20 35 -20 65 0 49 -17 107 -31 107 -5 0 -9 9 -9 21 0
16 -4 19 -20 14 -13 -4 -20 -2 -20 7 0 19 -23 68 -32 68 -5 0 -8 6 -8 13 0 7
-9 19 -20 27 -11 8 -20 20 -20 27 0 7 -6 13 -13 13 -7 0 -20 8 -28 18 -9 9
-26 24 -37 32 -12 8 -22 22 -22 32 0 10 -4 18 -10 18 -5 0 -10 11 -10 25 0 18
-5 25 -20 25 -13 0 -20 7 -20 18 0 22 -43 44 -67 35 -28 -11 25 48 93 103 33
26 61 50 64 53 29 34 102 39 169 14z m4431 -283 c0 -5 -20 -10 -45 -10 -25 0
-45 5 -45 10 0 6 20 10 45 10 25 0 45 -4 45 -10z m-18159 -908 c64 -28 89 -64
170 -249 38 -87 90 -200 114 -250 25 -51 45 -95 45 -97 0 -6 68 -157 81 -180
14 -25 63 -139 104 -246 46 -119 87 -203 95 -193 3 4 14 35 24 68 22 73 160
420 211 530 21 44 59 130 85 190 72 166 169 375 185 398 8 11 31 26 51 33 57
19 216 26 354 15 137 -11 169 -16 183 -30 18 -18 -27 -138 -118 -316 -51 -99
-233 -461 -406 -805 l-313 -625 2 -490 c1 -269 -1 -502 -4 -516 -8 -41 -52
-59 -179 -71 -137 -14 -298 1 -349 30 l-31 18 -2 510 c-2 280 -7 518 -12 529
-20 45 -345 693 -579 1157 -269 531 -281 562 -231 589 32 17 187 28 339 24
108 -3 144 -7 181 -23z m12739 -292 c0 -5 7 -10 15 -10 8 0 15 -4 15 -10 0 -5
7 -10 15 -10 8 0 15 -9 15 -20 0 -11 5 -20 10 -20 6 0 10 -9 10 -20 0 -11 4
-20 9 -20 5 0 12 -8 16 -19 3 -10 15 -29 26 -42 11 -12 17 -29 14 -37 -3 -7
-5 -25 -5 -39 0 -22 -1 -23 -16 -8 -20 20 -96 16 -167 -9 -33 -12 -62 -15 -88
-11 -23 4 -39 3 -39 -3 0 -15 -28 -24 -95 -33 -33 -4 -72 -10 -87 -12 -16 -3
-30 -2 -33 3 -3 4 -21 4 -41 0 -26 -6 -37 -5 -40 5 -5 13 -81 27 -181 34 -13
0 -23 7 -23 14 0 7 -9 19 -20 27 -14 10 -20 26 -20 52 0 28 5 38 20 43 12 4
20 15 20 30 0 19 9 26 51 39 43 15 64 15 149 6 54 -6 118 -10 142 -9 24 1 51
-1 61 -5 14 -7 17 -3 17 23 0 29 2 31 38 31 26 0 42 6 52 20 12 17 26 20 87
20 42 0 73 -4 73 -10z m7810 -251 c0 -20 13 -60 29 -90 15 -30 36 -81 46 -114
9 -33 23 -77 31 -98 22 -59 37 -231 31 -357 -7 -162 -40 -247 -141 -362 -40
-46 -94 -100 -119 -121 -26 -21 -47 -45 -47 -53 0 -25 37 -15 80 21 23 19 47
35 53 35 15 0 57 41 108 108 22 28 46 52 54 52 7 0 24 36 40 83 26 78 27 91
27 277 0 107 -1 204 -3 215 -5 34 12 98 42 159 16 33 29 77 30 100 1 23 4 52
8 66 l7 25 6 -25 c4 -14 14 -71 23 -128 22 -132 10 -277 -47 -582 -54 -289
-92 -401 -197 -585 -89 -156 -234 -307 -366 -381 -16 -9 -52 -35 -78 -57 l-49
-40 -131 -9 c-73 -5 -147 -10 -166 -11 -30 -2 -37 3 -55 33 -18 29 -21 51 -20
135 1 91 3 106 32 164 18 34 32 73 32 86 0 12 6 28 14 34 8 7 30 45 50 84 19
40 50 86 68 104 37 34 78 105 78 133 0 9 11 33 24 53 13 19 27 49 31 65 3 17
13 36 21 43 8 6 14 25 14 41 0 16 6 31 15 34 8 4 12 11 8 17 -3 5 2 16 11 22
9 7 21 38 27 71 22 118 35 127 93 64 20 -22 45 -40 55 -40 23 0 29 21 41 133
8 86 8 90 -19 136 -16 26 -31 64 -35 84 -3 20 -9 53 -12 72 -3 19 -10 35 -15
35 -12 0 -11 27 1 32 5 2 11 12 13 23 2 11 7 29 11 40 43 117 75 160 119 160
25 0 32 5 42 35 6 19 22 40 36 47 21 11 25 10 36 -10 7 -12 12 -38 13 -58z
m-7835 -104 c185 -36 285 -72 285 -101 0 -8 3 -14 8 -14 13 0 28 -66 19 -86
-9 -22 6 -74 23 -74 5 0 10 -15 10 -34 0 -41 42 -96 72 -96 13 0 45 -24 78
-60 32 -32 60 -56 64 -53 3 4 6 -2 6 -11 0 -10 17 -34 38 -54 24 -24 43 -54
52 -84 12 -41 18 -48 41 -48 22 0 26 -4 26 -30 0 -27 -7 -35 -29 -31 -14 2 -8
-30 7 -45 9 -9 15 -11 15 -4 0 6 5 8 10 5 6 -3 10 1 10 9 0 8 9 18 20 21 11 3
20 13 20 21 0 8 8 14 19 14 10 0 24 7 31 15 7 8 30 20 51 25 22 6 39 15 39 20
0 5 9 12 20 15 37 12 60 46 60 89 1 77 73 122 138 87 11 -6 34 -11 51 -11 17
0 31 -5 31 -11 0 -6 17 -27 37 -47 l37 -36 -3 -190 c-1 -106 -6 -192 -12 -194
-5 -2 -9 -27 -9 -56 0 -45 -4 -57 -27 -77 -16 -13 -36 -37 -45 -54 -9 -16 -23
-30 -30 -30 -7 0 -24 -17 -37 -37 -14 -20 -28 -35 -32 -32 -4 2 -23 -11 -42
-30 -19 -19 -38 -32 -41 -28 -4 3 -13 -4 -22 -16 -8 -12 -33 -31 -54 -42 -21
-11 -41 -29 -45 -40 -6 -20 -16 -24 -44 -20 -8 1 -20 -5 -26 -14 -17 -22 -126
-106 -139 -106 -6 0 -17 -9 -23 -19 -7 -11 -25 -26 -40 -33 -15 -7 -28 -18
-28 -23 0 -12 -47 -60 -58 -60 -5 0 -16 -9 -25 -21 -9 -11 -34 -31 -55 -45
-20 -13 -39 -31 -42 -41 -7 -19 -85 -58 -117 -58 -25 0 -63 -20 -40 -20 18 0
-23 -43 -46 -47 -9 -2 -41 -6 -69 -10 -29 -3 -53 -10 -53 -14 0 -5 -7 -9 -15
-9 -8 0 -15 5 -15 10 0 6 -26 10 -57 10 -32 1 -74 6 -93 13 -40 15 -82 1 -86
-29 -5 -33 -20 -37 -101 -25 -93 13 -165 12 -175 -3 -5 -7 -8 -4 -8 7 0 26
-94 25 -112 -2 -8 -11 -36 -23 -71 -31 -32 -6 -60 -17 -63 -24 -3 -7 -16 -11
-32 -8 -20 3 -37 -5 -62 -27 -33 -29 -40 -31 -104 -30 -49 2 -72 -2 -80 -12
-6 -8 -22 -20 -35 -27 -13 -8 -39 -22 -57 -32 -18 -11 -51 -24 -73 -30 -23 -6
-41 -15 -41 -20 0 -6 -6 -10 -14 -10 -7 0 -24 -14 -37 -31 -13 -17 -26 -34
-29 -38 -3 -3 -17 -12 -32 -20 -48 -25 -73 15 -46 74 6 14 14 25 18 25 4 0 11
17 15 37 4 21 13 57 22 81 14 42 13 44 -8 63 -19 17 -21 23 -11 39 6 10 16 49
23 87 6 37 15 76 20 85 5 9 12 36 15 60 4 24 15 59 24 78 10 19 20 52 24 73 4
20 11 37 16 37 6 0 10 5 10 11 0 6 7 17 15 25 8 9 15 24 15 36 0 11 11 47 24
81 14 34 29 80 35 102 6 22 18 49 26 59 8 11 15 31 15 44 0 13 5 32 10 43 6
10 15 85 20 166 9 146 23 274 34 323 3 14 8 36 10 50 2 14 9 38 15 53 6 15 10
31 9 35 -3 15 15 62 23 62 5 0 9 7 9 15 0 9 9 15 23 15 37 0 57 -46 58 -132 1
-83 12 -174 23 -185 4 -4 19 -2 34 3 40 15 55 -5 55 -75 -1 -52 -29 -211 -52
-289 -17 -56 -25 -202 -13 -202 7 0 14 12 17 28 4 15 10 45 15 66 5 22 7 43 4
48 -3 4 0 8 5 8 6 0 11 9 11 20 0 27 32 90 58 113 27 24 50 201 34 256 -16 53
-1 231 23 278 7 14 16 52 20 84 4 33 10 59 14 59 9 0 31 91 31 126 0 45 51
124 109 170 31 25 67 47 81 50 14 3 32 9 40 13 13 7 97 28 175 44 39 9 91 6
160 -8z m-9530 -39 c133 -18 212 -41 318 -93 343 -168 491 -466 492 -988 0
-260 -31 -397 -141 -621 -87 -177 -275 -339 -482 -414 -145 -53 -246 -70 -428
-70 -312 0 -530 64 -701 207 -227 190 -319 415 -330 813 -4 157 -2 204 16 310
39 238 118 423 237 551 134 146 285 233 504 288 119 30 357 38 515 17z m10201
-33 c7 -28 -3 -353 -13 -390 -4 -17 -12 -23 -34 -23 -16 0 -29 5 -29 10 0 6
-6 10 -14 10 -8 0 -28 14 -46 30 -18 17 -38 30 -46 30 -8 0 -14 10 -14 24 0
16 -7 27 -20 31 -11 3 -20 15 -20 25 0 10 -9 25 -21 33 -20 14 -20 16 -4 65
11 34 28 60 50 76 18 14 51 43 73 66 36 35 47 40 86 40 41 0 46 -3 52 -27z
m-8502 -7 c92 -24 86 21 86 -640 1 -663 6 -749 51 -845 37 -80 68 -114 134
-149 44 -24 61 -27 145 -27 78 0 104 4 142 23 59 28 143 95 231 184 l67 68 0
679 0 679 28 10 c84 31 113 34 272 29 91 -2 181 -9 201 -16 l36 -11 7 -92 c3
-50 6 -508 6 -1018 0 -870 -1 -928 -18 -943 -34 -31 -77 -39 -223 -39 -150 -1
-175 5 -212 44 -16 16 -18 34 -16 125 2 60 -1 108 -7 110 -5 2 -57 -36 -116
-85 -130 -106 -192 -145 -311 -191 -91 -36 -93 -36 -247 -36 -178 0 -229 10
-341 66 -93 46 -174 118 -235 210 -52 79 -76 138 -106 259 -19 80 -20 128 -27
820 -4 404 -6 740 -4 747 5 12 36 26 93 42 53 14 307 12 364 -3z m15027 -498
c11 -13 31 -47 45 -77 23 -47 26 -62 22 -126 -4 -63 -12 -88 -57 -180 -28 -58
-57 -130 -63 -160 -13 -65 -39 -95 -62 -72 -8 8 -13 17 -10 20 3 3 -5 26 -17
52 -20 43 -22 62 -21 204 1 224 9 260 67 316 54 51 69 54 96 23z m-1061 -228
c0 -5 -13 -10 -30 -10 -16 0 -30 5 -30 10 0 6 14 10 30 10 17 0 30 -4 30 -10z
m-2525 -509 c107 -51 263 -240 358 -434 59 -121 70 -152 87 -257 5 -30 14 -70
19 -87 6 -21 6 -45 0 -65 -5 -18 -7 -45 -3 -60 4 -22 -1 -34 -30 -63 -19 -19
-39 -35 -43 -35 -14 -1 -53 -38 -53 -50 0 -6 -10 -21 -22 -34 -19 -19 -37 -25
-94 -29 -72 -6 -105 1 -172 35 -18 10 -61 20 -95 23 -34 4 -120 15 -192 26
-71 11 -179 25 -240 30 -60 5 -164 15 -230 21 -66 6 -149 11 -185 12 -104 0
-353 -12 -372 -19 -9 -4 -50 3 -90 14 -41 12 -87 21 -102 21 -15 0 -37 11 -52
25 -19 19 -29 23 -42 16 -17 -9 -81 17 -109 44 -15 16 -17 45 -3 45 6 0 10 9
10 20 0 13 7 20 20 20 11 0 20 5 20 10 0 6 9 10 20 10 13 0 20 7 20 20 0 13 7
20 20 20 11 0 20 6 20 14 0 10 19 16 60 21 33 4 60 11 60 16 0 5 13 9 29 9 17
0 33 5 36 10 3 6 16 10 28 10 12 0 36 8 52 18 17 11 47 22 68 26 20 4 48 19
62 33 13 15 42 36 64 47 23 12 67 34 98 51 57 29 60 29 268 35 167 5 220 10
260 25 62 23 125 64 160 107 14 18 34 42 43 53 9 11 21 28 27 37 5 9 31 48 58
87 26 39 47 73 47 76 0 19 31 75 42 75 7 0 40 -13 73 -29z m3823 -681 c26 -21
22 -40 -8 -40 -19 0 -60 36 -60 52 0 15 45 7 68 -12z m262 -180 c0 -13 -11
-13 -30 0 -12 8 -11 10 8 10 12 0 22 -4 22 -10z m-3080 -70 c0 -5 -4 -10 -10
-10 -5 0 -10 5 -10 10 0 6 5 10 10 10 6 0 10 -4 10 -10z m-1716 -232 c14 -6
34 -28 43 -49 18 -39 33 -50 33 -25 0 8 10 27 23 42 22 26 24 26 90 16 36 -6
77 -17 90 -24 14 -7 39 -21 56 -31 24 -14 36 -15 46 -7 33 28 175 -28 175 -69
0 -49 -61 -51 -158 -5 l-53 26 -25 -25 c-29 -29 -102 -57 -148 -57 -17 0 -48
9 -68 20 l-37 20 -26 -45 c-15 -24 -36 -47 -47 -51 -11 -3 -79 -5 -152 -4 -72
2 -169 -3 -215 -10 -66 -10 -104 -10 -185 -1 -160 19 -151 12 -151 109 0 97 4
101 85 100 34 0 68 6 88 16 27 14 53 16 139 13 94 -4 109 -7 124 -26 l17 -21
19 32 c17 29 26 33 103 49 109 21 105 21 134 7z m-744 -254 c0 -2 -8 -4 -18
-4 -22 0 -49 69 -37 97 5 14 12 7 31 -36 13 -29 24 -55 24 -57z m2116 -144
c13 0 24 -4 24 -10 0 -5 22 -10 49 -10 28 0 53 5 56 10 11 18 51 11 72 -12 11
-13 25 -45 32 -73 17 -74 43 -129 53 -113 4 7 5 -1 2 -19 l-6 -33 71 0 c41 0
71 -4 71 -10 0 -5 6 -10 14 -10 13 0 24 -64 25 -145 1 -64 15 -175 22 -175 5
0 9 -11 9 -25 0 -15 7 -28 18 -32 27 -11 44 -32 38 -48 -4 -12 9 -15 82 -16
119 -2 124 -3 147 -16 11 -6 37 -14 58 -18 20 -4 37 -10 37 -14 0 -4 36 -13
80 -20 44 -8 80 -17 80 -22 0 -5 7 -9 15 -9 8 0 19 -15 24 -32 5 -18 10 -26
10 -18 1 13 2 13 11 0 16 -24 11 -48 -10 -55 -13 -4 -20 -15 -20 -31 0 -17 -5
-24 -20 -24 -11 0 -20 -4 -20 -10 0 -5 -5 -10 -11 -10 -7 0 -19 -8 -28 -19
-20 -23 -76 -52 -85 -44 -3 4 -6 -3 -6 -15 0 -11 -5 -22 -10 -24 -6 -2 -13
-27 -17 -56 -7 -59 -22 -72 -89 -72 -19 0 -34 -4 -34 -9 0 -7 -96 -22 -169
-26 -14 0 -26 -6 -29 -13 -2 -7 -19 -12 -39 -12 -19 0 -41 -7 -49 -15 -9 -8
-24 -15 -35 -15 -11 0 -24 -11 -31 -25 -6 -14 -17 -25 -25 -25 -7 0 -18 -9
-25 -20 -7 -11 -18 -20 -24 -20 -7 0 -17 -13 -22 -30 -7 -18 -20 -32 -35 -35
-14 -4 -29 -17 -35 -29 -6 -13 -23 -27 -38 -30 -15 -4 -39 -16 -52 -27 -14
-10 -33 -19 -44 -19 -10 0 -21 -7 -24 -15 -4 -8 -11 -15 -18 -15 -14 0 -66
-47 -66 -60 0 -4 -43 -25 -95 -45 -52 -21 -95 -41 -95 -45 0 -4 -10 -11 -22
-15 -13 -4 -25 -8 -28 -9 -3 -1 -20 -6 -37 -10 -30 -7 -47 -26 -23 -26 6 0 10
-4 10 -9 0 -17 -66 -21 -360 -23 -403 -3 -470 0 -470 18 0 19 -136 21 -143 2
-3 -12 -165 -15 -379 -9 -38 1 -55 21 -18 21 11 0 20 5 20 10 0 6 -18 10 -40
10 -38 0 -40 2 -40 30 0 23 -4 30 -20 30 -13 0 -20 7 -20 18 0 10 -9 24 -20
32 -11 8 -20 22 -20 32 0 10 -4 18 -10 18 -5 0 -10 23 -10 50 0 42 -3 50 -19
50 -22 0 -31 52 -30 174 1 90 10 138 23 118 13 -21 26 -13 26 16 0 68 72 93
242 85 99 -5 219 4 191 14 -10 4 -9 8 1 19 8 8 20 14 26 14 6 0 18 7 26 15 9
8 32 15 53 15 24 0 47 8 61 20 21 18 79 40 108 40 8 0 12 18 12 55 0 30 4 55
8 55 5 0 15 23 22 50 7 28 17 50 21 50 4 0 10 16 14 36 5 28 2 40 -12 55 -46
46 -47 50 -32 77 8 14 23 30 34 36 11 6 35 24 54 39 19 16 52 37 75 47 36 15
59 34 122 99 9 10 30 14 62 12 45 -2 52 1 82 33 23 24 46 37 73 42 22 3 49 16
61 28 23 25 82 62 136 87 19 9 73 53 120 98 96 92 157 137 209 154 35 12 36
12 39 -15 3 -22 8 -28 28 -28z m-2766 21 c7 -11 17 -18 22 -15 4 3 8 1 8 -4 0
-12 -24 -22 -51 -22 -14 0 -19 7 -19 30 0 35 19 40 40 11z m-145 -99 c18 -36
102 -112 124 -112 6 0 15 -9 21 -20 6 -11 19 -20 29 -20 12 0 28 -21 50 -65
18 -35 41 -67 51 -70 11 -4 17 -12 13 -21 -3 -8 1 -14 10 -14 8 0 26 -18 41
-40 14 -22 30 -40 35 -40 12 0 31 -56 31 -92 0 -17 4 -27 10 -23 6 3 10 -4 10
-16 0 -11 15 -53 34 -93 41 -85 61 -192 58 -301 -1 -44 -3 -114 -5 -155 -2
-78 -8 -90 -42 -89 -11 0 -14 3 -7 6 10 4 10 8 -2 17 -15 11 -191 351 -251
485 -15 35 -40 78 -55 95 -23 28 -42 55 -126 186 -13 19 -39 69 -59 110 -19
41 -44 91 -55 110 -11 19 -20 42 -20 52 0 9 -5 20 -11 24 -13 8 -3 70 17 102
10 15 24 22 48 22 28 0 35 -5 51 -38z m2515 -39 c-1 -23 -78 -83 -107 -83 -11
0 -26 -7 -33 -15 -36 -43 -90 -75 -134 -79 -35 -4 -53 -12 -78 -38 -18 -18
-36 -32 -40 -30 -4 1 -8 -2 -8 -8 0 -5 -18 -10 -39 -10 -22 0 -43 -5 -46 -10
-8 -14 -75 -41 -85 -35 -4 2 -16 -5 -26 -17 -25 -28 -75 -48 -120 -48 -39 0
-113 -18 -128 -32 -13 -11 -53 -10 -75 1 -10 6 -26 28 -36 50 -23 51 -35 52
-35 4 -1 -72 -43 -93 -127 -63 -53 18 -83 18 -83 -2 0 -6 -23 -8 -57 -4 -32 3
-78 5 -102 5 -51 0 -81 22 -81 60 l-1 26 -20 -25 -21 -25 -24 30 c-13 17 -24
43 -24 60 0 41 33 109 61 129 30 20 108 21 157 1 31 -13 67 -15 222 -10 102 3
219 12 260 20 41 8 113 19 160 25 47 7 94 16 104 22 37 20 133 22 161 4 25
-16 75 -13 75 5 0 25 46 48 112 54 39 4 89 16 112 26 41 19 106 26 106 12z
m887 -455 c-3 -7 -5 -2 -5 12 0 14 2 19 5 13 2 -7 2 -19 0 -25z m-9812 -649
c10 -30 -11 -48 -32 -27 -13 14 -14 20 -3 32 17 22 27 20 35 -5z m-4019 -354
c39 -8 110 -31 158 -49 267 -105 432 -286 513 -561 20 -70 28 -324 13 -427
-25 -176 -112 -342 -242 -463 -109 -101 -261 -173 -401 -190 -47 -6 -58 -11
-62 -29 -2 -11 -8 -115 -13 -230 l-9 -210 -28 -22 c-38 -30 -64 -34 -242 -34
-159 0 -203 9 -217 45 -9 24 -27 360 -29 530 -1 162 10 212 52 235 12 6 60 15
109 21 173 19 217 29 277 58 101 50 168 128 206 239 22 63 26 221 9 313 -24
130 -112 242 -235 300 -172 81 -441 61 -660 -48 -66 -33 -123 -47 -143 -35
-26 17 -52 290 -33 359 9 33 21 47 59 71 95 61 294 124 448 142 113 12 385 4
470 -15z m-4956 -149 c118 -20 269 -67 376 -116 250 -115 445 -334 543 -610
72 -201 105 -423 105 -710 0 -235 -15 -367 -64 -578 -53 -222 -183 -455 -341
-609 -163 -159 -399 -278 -647 -326 -103 -19 -145 -22 -344 -20 -196 1 -246 5
-368 28 -426 78 -694 296 -850 690 -113 284 -147 758 -85 1156 56 363 225 660
487 859 172 131 394 213 673 250 100 13 403 4 515 -14z m3431 -20 c79 -14 156
-47 165 -71 17 -42 -73 -202 -217 -385 -117 -150 -194 -250 -364 -475 -87
-115 -184 -241 -215 -280 -64 -79 -80 -106 -80 -132 1 -16 89 -161 181 -295
20 -29 89 -134 154 -233 64 -99 144 -220 177 -270 34 -49 118 -176 189 -281
149 -221 219 -349 219 -399 0 -74 -77 -96 -327 -96 -146 1 -180 4 -224 20 -28
11 -58 28 -66 38 -24 31 -224 335 -303 462 -41 67 -129 204 -195 306 -158 243
-320 504 -362 583 -21 40 -39 41 -47 1 -3 -17 -6 -322 -6 -678 0 -355 -3 -656
-6 -668 -11 -42 -73 -56 -256 -61 -149 -4 -176 -2 -237 17 -66 20 -69 22 -76
58 -8 46 -9 2793 0 2801 19 19 106 34 234 39 158 6 257 -6 309 -37 l32 -20 0
-288 c0 -415 12 -952 21 -946 4 2 28 35 54 72 25 37 66 96 92 132 47 65 112
158 180 260 21 30 82 118 136 195 53 77 102 147 108 155 5 8 25 38 45 65 19
28 46 68 61 90 14 22 30 42 34 43 5 2 9 7 9 12 0 4 19 36 43 71 97 144 117
168 155 180 88 29 265 36 383 15z m13109 -26 c0 -5 -4 -10 -10 -10 -5 0 -10 5
-10 10 0 6 5 10 10 10 6 0 10 -4 10 -10z m-11707 -2271 c113 -31 178 -169 164
-350 -18 -229 -99 -295 -347 -287 -126 4 -158 15 -218 71 -47 45 -65 116 -66
252 0 187 39 266 152 307 55 19 254 24 315 7z"/>
<path d="M8950 17523 c-36 -120 -120 -386 -130 -408 -15 -36 -210 -634 -210
-645 0 -7 113 -9 373 -8 l372 3 -3 30 c-2 17 -80 260 -173 540 -189 567 -189
565 -198 565 -4 0 -18 -35 -31 -77z"/>
<path d="M16197 12158 c3 -24 1 -38 -6 -38 -6 0 -11 -4 -11 -10 0 -5 9 -10 20
-10 16 0 20 7 20 30 0 17 -4 30 -9 30 -5 0 -12 8 -14 18 -2 9 -2 0 0 -20z"/>
<path d="M15010 11120 c0 -5 9 -14 21 -21 12 -6 49 -39 83 -73 33 -34 81 -79
106 -100 25 -22 75 -68 111 -104 47 -45 71 -62 80 -56 17 10 49 6 67 -8 7 -6
33 -8 62 -5 35 4 54 2 63 -8 8 -7 19 -10 26 -5 10 5 9 9 -3 13 -9 4 -16 14
-16 24 0 32 -69 53 -175 55 -52 1 -95 5 -95 10 0 4 -4 8 -10 8 -5 0 -39 29
-74 64 -35 35 -71 66 -80 69 -9 4 -16 11 -16 17 0 6 5 8 12 4 7 -4 8 -3 4 4
-4 7 -16 12 -27 12 -13 0 -18 4 -13 12 4 6 3 8 -2 5 -6 -3 -32 17 -59 44 -48
48 -65 59 -65 39z"/>
<path d="M15671 10704 c0 -11 3 -14 6 -6 3 7 2 16 -1 19 -3 4 -6 -2 -5 -13z"/>
<path d="M12783 17086 c-158 -51 -265 -204 -275 -396 l-3 -55 385 0 385 0 3
64 c8 162 -70 311 -194 371 -40 19 -68 24 -154 27 -69 2 -119 -2 -147 -11z"/>
<path d="M20640 16150 c0 -5 5 -10 10 -10 6 0 10 5 10 10 0 6 -4 10 -10 10 -5
0 -10 -4 -10 -10z"/>
<path d="M20280 15900 c0 -13 -7 -20 -20 -20 -13 0 -20 -7 -20 -20 0 -17 7
-20 40 -20 l40 0 0 40 c0 33 -3 40 -20 40 -13 0 -20 -7 -20 -20z"/>
<path d="M21870 14368 l-25 -10 23 -11 c12 -5 22 -14 22 -19 0 -4 5 -8 11 -8
6 0 17 -6 25 -14 11 -12 12 -20 2 -40 -6 -14 -15 -26 -20 -26 -4 0 -8 -11 -8
-24 0 -63 -24 -77 -142 -83 -83 -4 -89 -2 -115 21 -26 25 -26 25 -14 83 8 32
18 61 24 65 6 4 8 10 5 13 -4 4 -13 3 -20 -1 -7 -5 -24 -10 -38 -11 -14 -2
-44 -8 -68 -13 -23 -6 -95 -10 -160 -9 -147 2 -226 -8 -269 -33 -18 -11 -62
-24 -98 -28 -36 -4 -71 -15 -80 -24 -9 -9 -28 -16 -41 -16 -14 0 -55 -18 -91
-40 -37 -22 -70 -40 -75 -40 -4 0 -8 -7 -8 -15 0 -8 -7 -15 -15 -15 -8 0 -15
-4 -15 -8 0 -4 -20 -13 -45 -20 -25 -7 -45 -16 -45 -22 0 -5 -16 -10 -35 -10
-19 0 -35 -5 -35 -11 0 -7 -11 -9 -29 -6 -23 5 -32 1 -45 -18 -8 -13 -30 -26
-47 -30 -18 -4 -43 -18 -56 -31 -23 -24 -31 -54 -13 -54 6 0 10 -18 10 -40 0
-22 4 -40 9 -40 5 0 13 -9 16 -20 3 -11 15 -20 26 -20 12 0 19 -7 19 -20 0
-15 7 -20 25 -20 14 0 25 -4 25 -10 0 -5 8 -10 18 -10 10 0 24 -9 32 -21 29
-41 50 -62 50 -50 0 9 5 8 15 -3 8 -8 15 -21 15 -30 0 -8 11 -26 25 -40 28
-28 32 -51 10 -60 -8 -3 -15 -12 -15 -21 0 -8 7 -15 15 -15 11 0 15 -12 15
-49 0 -28 4 -52 9 -55 5 -3 12 -17 15 -32 4 -14 11 -31 17 -37 5 -7 22 -37 37
-67 15 -30 39 -60 52 -67 41 -20 60 -37 60 -51 0 -27 94 -132 117 -132 12 0
29 -10 38 -22 8 -13 19 -23 23 -24 18 -1 68 -31 82 -47 18 -22 77 -38 145 -39
99 -3 405 15 405 24 0 12 67 78 79 78 5 0 12 -6 14 -12 3 -7 6 -3 6 10 1 16
-5 22 -19 22 -11 0 -20 5 -20 10 0 6 -12 10 -26 10 -14 0 -32 7 -40 15 -23 23
10 55 57 55 24 0 39 5 43 16 4 10 13 13 26 9 11 -3 20 -2 20 3 0 5 25 12 57
15 31 3 60 12 64 19 5 7 12 13 16 13 34 2 63 18 63 35 0 38 -29 42 -278 34
-130 -4 -246 -8 -257 -8 -31 -1 -31 48 1 62 13 7 24 16 24 21 0 5 12 11 28 14
83 17 113 25 124 35 21 17 139 25 188 12 88 -23 163 -29 175 -15 21 27 74 35
147 24 39 -6 84 -17 102 -24 48 -20 318 -4 411 24 79 25 217 58 261 63 44 5
38 32 -8 36 -33 3 -193 -34 -255 -59 -13 -5 -71 -11 -131 -15 -158 -9 -302 23
-477 106 -33 15 -107 49 -165 75 -58 26 -114 51 -125 56 -62 28 -136 37 -282
35 -83 -1 -150 1 -148 5 13 20 117 42 200 42 85 0 230 -31 245 -53 3 -4 16
-11 30 -16 14 -5 72 -34 130 -64 58 -29 129 -62 157 -72 57 -20 229 -33 238
-19 7 12 -309 166 -405 198 -237 78 -442 97 -630 58 -52 -10 -97 -23 -100 -27
-3 -4 -22 -5 -43 -1 l-36 6 19 25 c16 19 20 40 20 93 0 56 3 69 15 69 9 0 21
5 28 10 51 43 192 110 230 110 9 0 17 5 17 11 0 5 4 8 9 5 5 -3 22 1 39 10 41
20 303 12 358 -11 20 -8 58 -15 85 -15 26 0 51 -4 54 -10 3 -5 17 -10 29 -10
13 0 53 -13 89 -30 37 -16 77 -30 91 -30 26 0 92 -25 100 -38 3 -5 26 -12 51
-15 25 -4 74 -20 108 -36 34 -16 73 -33 87 -36 13 -4 30 -14 38 -21 11 -11 79
-20 114 -15 4 0 9 -8 13 -18 6 -20 31 -31 53 -24 14 5 17 63 2 63 -5 0 -10 5
-10 12 0 19 -52 118 -62 118 -19 0 -98 92 -98 115 0 15 -8 26 -20 30 -11 3
-23 17 -26 31 -8 31 -129 115 -249 173 -49 24 -98 47 -107 52 -10 5 -26 9 -36
9 -32 0 -78 28 -90 55 -11 23 -16 25 -84 24 -40 0 -84 -5 -98 -11z"/>
<path d="M21779 12919 c-9 -5 -8 -11 4 -23 11 -12 17 -13 20 -3 4 9 6 9 6 0 1
-21 31 -15 31 6 0 20 -40 34 -61 20z"/>
<path d="M23770 12495 c0 -10 11 -15 35 -15 24 0 35 5 35 15 0 10 -11 15 -35
15 -24 0 -35 -5 -35 -15z"/>
<path d="M18720 14860 c0 -11 5 -20 10 -20 6 0 10 9 10 20 0 11 -4 20 -10 20
-5 0 -10 -9 -10 -20z"/>
<path d="M18266 12014 c-9 -24 -7 -74 3 -74 12 0 21 26 21 61 0 31 -14 39 -24
13z"/>
<path d="M7784 12691 c-97 -33 -195 -124 -243 -226 -56 -118 -75 -221 -74
-405 1 -243 41 -415 122 -528 102 -140 386 -186 569 -93 62 31 140 109 177
175 39 70 59 140 80 278 19 123 19 186 0 324 -21 151 -40 222 -76 282 -96 156
-201 213 -396 211 -75 0 -124 -6 -159 -18z"/>
<path d="M21009 9982 c-3 -20 -2 -29 4 -23 5 5 7 19 5 32 -3 20 -5 19 -9 -9z"/>
<path d="M20766 9941 c-24 -26 -13 -63 17 -59 18 2 22 10 22 37 0 41 -15 49
-39 22z"/>
<path d="M3226 8109 c-245 -36 -404 -148 -517 -365 -59 -112 -73 -158 -100
-314 -29 -166 -32 -533 -5 -680 47 -266 150 -460 294 -557 188 -126 539 -145
770 -42 151 68 280 217 344 399 51 145 71 275 75 502 8 338 -23 529 -113 715
-101 209 -272 320 -528 343 -125 11 -137 11 -220 -1z"/>
<path d="M25108 8163 c-2 -10 -10 -18 -18 -18 -8 0 -17 -4 -18 -10 -2 -5 -8
-16 -14 -23 -6 -7 -9 -15 -6 -17 5 -5 88 70 88 79 0 15 -29 4 -32 -11z"/>
<path d="M24986 8033 c-6 -14 -5 -15 5 -6 7 7 10 15 7 18 -3 3 -9 -2 -12 -12z"/>
<path d="M20830 6281 c0 -20 46 -41 88 -41 61 0 50 20 -19 36 -67 16 -69 16
-69 5z"/>
<path d="M23410 6113 c-41 -20 -69 -38 -63 -40 7 -3 27 3 44 11 18 9 37 16 43
16 6 0 24 11 40 25 39 34 25 31 -64 -12z"/>
<path d="M25020 6089 c0 -5 -6 -7 -12 -3 -7 3 30 -36 82 -87 75 -74 96 -89 98
-75 4 17 -43 72 -65 79 -5 1 -7 6 -5 10 1 5 -2 6 -6 3 -5 -3 -17 3 -27 14 -10
11 -14 20 -10 20 5 0 -2 11 -15 25 -25 26 -40 32 -40 14z"/>
<path d="M21285 706 c-27 -7 -79 -25 -115 -40 -140 -59 -1268 -631 -1295 -657
-5 -5 422 -9 1058 -9 l1067 0 -29 58 c-16 31 -52 95 -81 142 -29 47 -75 122
-101 168 -104 178 -187 275 -271 316 -66 32 -161 41 -233 22z m79 -45 c3 -5
-6 -12 -22 -16 -15 -3 -40 -17 -57 -29 -35 -27 -75 -42 -75 -28 0 9 51 47 95
71 25 13 52 14 59 2z"/>
</g>
</svg>
